<svg version="1.1" id="Layer_1" xmlns="http://www.w3.org/2000/svg" x="0" y="0" viewBox="0 0 40 50" xml:space="preserve"><path d="M37.3 10.9C34.1 4.6 27.6.2 20 .2V10c5.4 0 9.7 4.2 9.7 9.6 0 5.3-4.4 9.9-9.7 9.9v20.3c6.8-7.1 14.7-15 18.2-24.3 1.7-4.7 1.4-10.1-.9-14.6z" fill="#b3b3b3"/><path d="M1.8 25.4C5.3 34.8 13.2 42.7 20 49.8V29.5c-5.3 0-9.7-4.6-9.7-9.9 0-5.4 4.4-9.6 9.7-9.6V.2C12.4.2 5.9 4.6 2.7 10.9.4 15.4.1 20.8 1.8 25.4z" fill="#979797"/><path d="M35.5 19.5C35.5 28 28.6 35 20 35S4.5 28 4.5 19.5L20 4c8.6 0 15.5 6.9 15.5 15.5z" fill="#0052b4"/><path style="fill:#f0f0f0" d="M20 4zM20 19.5c0-.1 0-.1 0 0 0-.1 0-.1 0 0zM20 12V3.9c-8.6.1-15.5 7-15.5 15.6h8.1v-4.6l4.6 4.6H20v-2.8L15.4 12H20z"/><path style="fill:#d80027" d="M12.3 6c-2.4 1.4-4.4 3.4-5.8 5.8v7.7h4V10H20V6h-7.7z"/><path style="fill:#d80027" d="M20 17.6L14.5 12h-1.9l7.4 7.4v-1.8z"/><g><path style="fill:#f0f0f0" d="M13.8 22.2l.9 1.7 1.9-.4-.8 1.8 1.5 1.2-1.9.4v2l-1.6-1.2-1.5 1.2v-2l-1.9-.4 1.5-1.2-.8-1.8 1.9.4zM27.7 25.5l.4.9 1-.2-.4.9.7.6-.9.2v1l-.8-.6-.8.6v-1l-.9-.2.7-.6-.4-.9 1 .2zM23.7 16.1l.5.9.9-.2-.4.8.8.7-1 .2v1l-.8-.7-.7.7v-1l-1-.2.8-.7-.4-.8.9.2zM27.7 10.7l.4.9 1-.2-.4.9.7.6-.9.2v1l-.8-.6-.8.6v-1l-.9-.2.7-.6-.4-.9 1 .2zM31.2 14.7l.4.9.9-.2-.4.9.8.6-1 .2v1l-.7-.6-.8.6v-1l-1-.2.8-.6-.4-.9.9.2zM28.7 19.5l.3 1h1.1l-.9.6.4 1.1-.9-.7-.9.7.3-1.1-.8-.6h1.1z"/></g><path d="M20 2.3c-7.1 0-13.7 4.6-16.1 11.3-2.5 6.8-.3 14.5 5.2 19.1 5.5 4.6 13.6 5.2 19.8 1.5 6.2-3.7 9.4-11.1 8-18.2-1.5-6.9-7.3-12.4-14.2-13.5-.9-.1-1.8-.2-2.7-.2m13.8 23.4c-2.9 6.5-10.2 10.1-17.2 8.6-5.3-1.3-9.7-5.4-11.2-10.7-1.5-5.4.1-11.3 4.2-15.2C14 4.3 20.7 3.2 26.2 5.6c6.6 3 10.3 10.5 8.5 17.5-.2.9-.5 1.8-.9 2.6-.2.4.2-.3 0 0" fill="#c7c7c7"/></svg>