<svg version="1.1" id="Layer_1" xmlns="http://www.w3.org/2000/svg" x="0" y="0" viewBox="0 0 40 50" xml:space="preserve"><path d="M37.4 10.9C34.1 4.6 27.6.1 20 .1V10c5.4 0 9.8 4.2 9.8 9.6 0 5.3-4.4 9.9-9.8 9.9v20.4c6.9-7.2 14.8-15 18.2-24.5 1.8-4.7 1.5-10.1-.8-14.5z" fill="#b3b3b3"/><path d="M1.8 25.4C5.2 34.9 13.1 42.7 20 49.9V29.5c-5.4 0-9.8-4.6-9.8-9.9 0-5.4 4.4-9.6 9.8-9.6V.1C12.4.1 5.9 4.6 2.6 10.9.3 15.3 0 20.7 1.8 25.4z" fill="#979797"/><circle cx="20" cy="19.4" r="15.6" fill="#f0f0f0"/><path style="fill:#0052b4" d="M7.7 10c-1.2 1.6-2.1 3.4-2.7 5.4h8.1L7.7 10zM35 15.4c-.5-2-1.5-3.8-2.7-5.4l-5.4 5.4H35zM5 23.5c.5 2 1.5 3.8 2.7 5.4l5.4-5.4H5zM29.5 7.1c-1.6-1.2-3.4-2.1-5.4-2.7v8.1l5.4-5.4zM10.5 31.8c1.6 1.2 3.4 2.1 5.4 2.7v-8.1l-5.4 5.4zM15.9 4.4c-2 .5-3.8 1.5-5.4 2.7l5.4 5.4V4.4zM24.1 34.5c2-.5 3.8-1.5 5.4-2.7l-5.4-5.4v8.1zM26.9 23.5l5.4 5.4c1.2-1.6 2.1-3.4 2.7-5.4h-8.1z"/><g><path style="fill:#d80027" d="M35.4 17.4H22V4c-.7-.1-1.3-.1-2-.1s-1.4 0-2 .1v13.4H4.6c-.1.7-.1 1.3-.1 2s0 1.4.1 2H18v13.4c.7.1 1.3.1 2 .1s1.4 0 2-.1V21.5h13.4c.1-.7.1-1.3.1-2 .1-.8 0-1.4-.1-2.1z"/><path style="fill:#d80027" d="M24.1 23.5l6.9 6.9c.3-.3.6-.7.9-1L26 23.5h-1.9zM15.9 23.5L9 30.4c.3.3.7.6 1 .9l5.9-5.9v-1.9zM15.9 15.4L9 8.4c-.3.3-.6.7-.9 1l5.9 5.9 1.9.1zM24.1 15.4l6.9-7c-.3-.3-.7-.6-1-.9l-5.9 5.9v2z"/></g><path d="M20 2.2c-7.2 0-13.8 4.6-16.2 11.4-2.5 6.8-.3 14.5 5.2 19.1 5.6 4.6 13.7 5.2 19.8 1.5 6.2-3.7 9.5-11.2 8-18.3C35.5 9 29.7 3.5 22.7 2.4c-.9-.1-1.8-.2-2.7-.2m13.9 23.5c-2.9 6.5-10.3 10.2-17.3 8.6-5.4-1.2-9.8-5.4-11.3-10.7-1.5-5.4.2-11.4 4.3-15.2C14 4.2 20.7 3 26.2 5.6c6.6 3 10.3 10.5 8.5 17.6-.2.8-.5 1.7-.8 2.5-.2.4.1-.3 0 0" fill="#c7c7c7"/></svg>