<svg version="1.1" id="Layer_1" xmlns="http://www.w3.org/2000/svg" x="0" y="0" viewBox="0 0 40 50" xml:space="preserve"><path d="M37.2 11C34 4.8 27.6.4 20 .4v9.7c5.3 0 9.7 4.2 9.7 9.5s-4.4 9.8-9.7 9.8v20.1c6.8-7.1 14.6-14.8 18-24.2 1.8-4.5 1.5-9.9-.8-14.3z" fill="#b3b3b3"/><path d="M2 25.4c3.4 9.3 11.2 17.1 18 24.2V29.5c-5.3 0-9.7-4.5-9.7-9.8 0-5.3 4.3-9.5 9.7-9.5V.4C12.5.4 6 4.8 2.9 11 .6 15.4.3 20.8 2 25.4z" fill="#979797"/><circle cx="20" cy="19.5" r="15.4" fill="#f0f0f0"/><path style="fill:#d80027" d="M19.4 19.5h16c0-1.4-.2-2.7-.5-4H19.4v4zM19.4 11.5h13.8c-.9-1.5-2.1-2.9-3.5-4H19.4v4zM20 34.9c3.6 0 6.9-1.3 9.6-3.3H10.5c2.6 2 5.9 3.3 9.5 3.3zM6.9 27.5h26.2c.8-1.2 1.3-2.6 1.7-4H5.2c.4 1.4 1 2.8 1.7 4z"/><path d="M11.8 6.5h1.4l-1.3.9.5 1.6-1.3-.9-1.3.9.4-1.3c-1.1 1-2.2 2.1-3 3.3h.4l-.8.6c-.1.2-.3.4-.4.7l.4 1.2-.7-.5c-.2.4-.4.8-.5 1.2l.4 1.3h1.6l-1.3.9.6 1.6-1.3-1-.8.6c-.1.6-.1 1.3-.1 1.9H20V4.1c-3 0-5.8.9-8.2 2.4zm.6 11.5l-1.3-1-1.3 1 .5-1.5-1.3-1h1.6l.5-1.5.5 1.5h1.6l-1.3.9.5 1.6zm-.5-6l.5 1.5-1.3-.9-1.3.9.5-1.5L9 11h1.6l.5-1.5.5 1.5h1.6l-1.3 1zm6 6l-1.3-1-1.3 1 .5-1.5-1.3-.9h1.6l.5-1.5.5 1.5h1.6l-1.3.9.5 1.5zm-.5-6l.5 1.5-1.3-.9-1.3.9.5-1.5-1.3-1h1.6l.5-1.5.5 1.5h1.6l-1.3 1zm0-4.5l.5 1.5-1.3-.9-1.3.9.5-1.5-1.3-.9h1.6l.5-1.6.5 1.5h1.6l-1.3 1z" fill="#0052b4"/><path d="M20 2.5c-7 0-13.6 4.6-16 11.2-2.4 6.7-.3 14.4 5.2 18.9 5.5 4.5 13.5 5.2 19.6 1.5 6.1-3.7 9.3-11 7.9-18-1.4-6.9-7.1-12.3-14-13.4-.9-.1-1.8-.2-2.7-.2m13.7 23.2c-2.9 6.4-10.2 10.1-17.1 8.5-5.2-1.2-9.6-5.4-11-10.6-1.5-5.3.1-11.2 4.2-15 4.4-4.1 11-5.2 16.5-2.8 6.6 3 10.2 10.4 8.4 17.4-.3.8-.6 1.7-1 2.5-.2.4.2-.3 0 0" fill="#c7c7c7"/></svg>