<svg version="1.1" id="Layer_1" xmlns="http://www.w3.org/2000/svg" x="0" y="0" viewBox="0 0 40 50" xml:space="preserve"><path d="M37.2 11C34 4.7 27.6.3 20 .3v9.8c5.4 0 9.7 4.2 9.7 9.6 0 5.3-4.4 9.8-9.7 9.8v20.2c6.8-7.1 14.7-14.9 18.1-24.3 1.7-4.6 1.4-10-.9-14.4z" fill="#b3b3b3"/><path d="M1.9 25.4C5.3 34.8 13.2 42.6 20 49.7V29.5c-5.3 0-9.7-4.6-9.7-9.8 0-5.4 4.4-9.6 9.7-9.6V.3C12.4.3 6 4.7 2.8 11 .5 15.4.2 20.8 1.9 25.4z" fill="#979797"/><circle cx="20" cy="19.5" r="15.4" fill="#f0f0f0"/><path style="fill:#d80027" d="M35.4 19.5c0-6.1-3.6-11.4-8.7-13.9v27.8c5.2-2.5 8.7-7.8 8.7-13.9zM4.6 19.5c0 6.1 3.6 11.4 8.7 13.9V5.6c-5.2 2.5-8.7 7.8-8.7 13.9zM22.7 21.5l2.7-1.4-1.4-.6v-1.4l-2.7 1.4 1.4-2.7h-1.4l-1.3-2-1.3 2h-1.4l1.4 2.7-2.7-1.4v1.4l-1.4.6 2.7 1.4-.7 1.3h2.7v2h1.4v-2h2.7z"/><path d="M20 2.4C12.9 2.4 6.3 7 3.9 13.7c-2.4 6.7-.3 14.5 5.2 19 5.5 4.6 13.5 5.2 19.7 1.5 6.1-3.7 9.4-11.1 7.9-18.1-1.4-6.9-7.1-12.4-14-13.5-.9-.1-1.8-.2-2.7-.2m13.8 23.3c-2.9 6.5-10.2 10.1-17.1 8.5-5.4-1.2-9.8-5.4-11.2-10.6-1.6-5.4.1-11.3 4.2-15.1 4.4-4.1 11-5.3 16.5-2.8 6.6 3 10.2 10.4 8.5 17.4-.3.9-.6 1.8-.9 2.6-.2.4.1-.3 0 0" fill="#c7c7c7"/></svg>