<svg xmlns="http://www.w3.org/2000/svg" viewBox="0 0 40 50"><path d="M37.4 10.8C34.2 4.5 27.7 0 20 0v9.9c5.4 0 9.8 4.3 9.8 9.7 0 5.4-4.4 10-9.8 10V50c6.9-7.2 14.8-15.1 18.3-24.6 1.7-4.7 1.4-10.1-.9-14.6z" fill="#b3b3b3"/><path d="M1.7 25.4C5.2 34.9 13.1 42.8 20 50V29.5c-5.4 0-9.8-4.6-9.8-10s4.4-9.7 9.8-9.7V0C12.3 0 5.8 4.5 2.6 10.8.3 15.3 0 20.7 1.7 25.4z" fill="#979797"/><circle cx="20" cy="19.4" r="15.6" fill="#f0f0f0"/><circle cx="20" cy="19.4" r="6.8" fill="#d80027"/><path d="M20 2.1c-7.2 0-13.8 4.6-16.3 11.4-2.5 6.8-.3 14.7 5.3 19.3 5.6 4.6 13.7 5.2 19.9 1.5 6.2-3.8 9.5-11.2 8-18.3-1.4-7-7.2-12.6-14.2-13.7-.9-.1-1.8-.2-2.7-.2m13.9 23.6c-3 6.5-10.3 10.2-17.3 8.6-5.4-1.2-9.8-5.4-11.3-10.8-1.6-5.4.1-11.3 4.2-15.2C14 4.1 20.7 3 26.3 5.5c6.7 3 10.3 10.6 8.6 17.7-.3.8-.6 1.7-1 2.5-.2.5.2-.3 0 0" fill="#c7c7c7"/></svg>