<svg version="1.1" id="Layer_1" xmlns="http://www.w3.org/2000/svg" x="0" y="0" viewBox="0 0 40 50" xml:space="preserve"><path d="M37 11C33.8 4.7 27.4.3 19.8.3v9.8c5.4 0 9.7 4.2 9.7 9.6 0 5.3-4.4 9.9-9.7 9.9v20.2c6.8-7.1 14.7-14.9 18.1-24.3 1.7-4.7 1.4-10.1-.9-14.5z" fill="#b3b3b3"/><path d="M1.7 25.4C5.1 34.8 13 42.6 19.8 49.7V29.5c-5.3 0-9.7-4.6-9.7-9.9 0-5.4 4.4-9.6 9.7-9.6V.3C12.2.3 5.8 4.7 2.6 11 .3 15.4 0 20.8 1.7 25.4z" fill="#979797"/><circle cx="19.8" cy="19.5" r="15.5" fill="#6da544"/><path fill="#ffda44" d="M19.8 10.1l12.8 9.4-12.8 9.4L7 19.5z"/><circle cx="19.8" cy="19.5" r="5.4" fill="#f0f0f0"/><path style="fill:#0052b4" d="M17.1 19.1c-.9 0-1.8.1-2.7.4 0 2.9 2.4 5.3 5.4 5.3 1.8 0 3.4-.9 4.4-2.3-1.7-2-4.2-3.4-7.1-3.4zM25.1 20.5c.1-.3.1-.7.1-1 0-3-2.4-5.4-5.4-5.4-2.2 0-4.1 1.3-4.9 3.3.7-.2 1.5-.2 2.3-.2 3-.1 5.9 1.2 7.9 3.3z"/><path d="M19.8 2.4C12.7 2.4 6.1 7 3.7 13.7c-2.4 6.7-.3 14.5 5.2 19 5.5 4.6 13.6 5.2 19.7 1.5s9.4-11.1 7.9-18.1c-1.4-7-7.1-12.4-14-13.5-.9-.2-1.8-.2-2.7-.2m13.8 23.3c-2.9 6.5-10.2 10.1-17.1 8.5-5.4-1.2-9.8-5.4-11.3-10.6-1.5-5.4.2-11.3 4.2-15.1 4.4-4.1 11-5.3 16.5-2.8 6.6 3 10.2 10.4 8.5 17.5-.2.8-.5 1.7-.8 2.5-.2.4.1-.3 0 0" fill="#c7c7c7"/></svg>