<svg version="1.1" id="Layer_1" xmlns="http://www.w3.org/2000/svg" x="0" y="0" viewBox="0 0 40 50" xml:space="preserve"><path d="M37.5 11C34.3 4.7 27.8.2 20.2.2V10c5.4 0 9.8 4.2 9.8 9.6 0 5.3-4.4 9.9-9.8 9.9v20.3c6.9-7.1 14.8-15 18.2-24.4 1.7-4.6 1.4-10-.9-14.4z" fill="#b3b3b3"/><path d="M2 25.5c3.5 9.4 11.3 17.3 18.2 24.4V29.6c-5.3 0-9.8-4.6-9.8-9.9 0-5.4 4.4-9.6 9.8-9.6V.2C12.6.2 6.1 4.7 2.9 11 .6 15.4.3 20.8 2 25.5z" fill="#979797"/><circle cx="20.2" cy="19.5" r="15.5" fill="#d80027"/><path style="fill:#ffda44" d="M13.2 13.4l1.3 4.2h4.4l-3.6 2.5 1.4 4.1-3.5-2.5-3.5 2.5 1.3-4.1-3.5-2.5h4.3zM21.6 27.2l-1.3-1-1.3 1 .5-1.6-1.3-.9h1.6l.5-1.6.5 1.6h1.6l-1.3.9zM25.1 22.4h-1.7l-.5 1.6-.5-1.6h-1.6l1.3-.9-.5-1.6 1.3 1 1.4-1-.6 1.6zM25.1 16.6l-1.4.9.6 1.6-1.4-1-1.3 1 .5-1.6-1.3-.9h1.6l.5-1.6.5 1.6zM21.6 11.9l-.5 1.5 1.3 1h-1.6l-.5 1.5-.5-1.5h-1.6l1.3-1-.5-1.5 1.3.9z"/><path d="M20.2 2.3C13 2.3 6.5 6.9 4 13.7c-2.5 6.8-.3 14.5 5.2 19.1 5.6 4.6 13.6 5.2 19.8 1.5 6.2-3.7 9.4-11.1 8-18.2-1.4-7-7.1-12.5-14.1-13.6-.9-.1-1.8-.2-2.7-.2m13.9 23.5c-2.9 6.5-10.3 10.2-17.2 8.6-5.4-1.2-9.7-5.4-11.2-10.7-1.6-5.5 0-11.4 4.1-15.2 4.4-4.2 11.1-5.3 16.6-2.8 6.6 3 10.3 10.5 8.5 17.6-.2.8-.5 1.6-.8 2.5-.3.4.1-.4 0 0" fill="#c7c7c7"/></svg>