<svg version="1.1" id="Layer_1" xmlns="http://www.w3.org/2000/svg" x="0" y="0" viewBox="0 0 40 50" xml:space="preserve"><path d="M37.3 10.9C34.1 4.6 27.6.2 20 .2V10c5.4 0 9.7 4.2 9.7 9.6 0 5.3-4.4 9.9-9.7 9.9v20.3c6.8-7.1 14.7-15 18.2-24.4 1.7-4.7 1.4-10-.9-14.5z" fill="#b3b3b3"/><path d="M1.8 25.4C5.3 34.8 13.2 42.7 20 49.8V29.5c-5.3 0-9.7-4.6-9.7-9.9 0-5.4 4.4-9.6 9.7-9.6V.2C12.4.2 5.9 4.6 2.7 10.9.4 15.4.1 20.7 1.8 25.4z" fill="#979797"/><circle cx="20" cy="19.5" r="15.5" fill="#0052b4"/><path style="fill:#ffda44" d="M20 10l.5 1.6h1.6l-1.3.9.5 1.6-1.3-1-1.3 1 .5-1.6-1.3-.9h1.6zM13.3 12.8l1.5.7 1.1-1.1-.2 1.6 1.4.7-1.6.3-.2 1.6-.8-1.5-1.6.3 1.2-1.2zM10.6 19.5l1.5-.5v-1.7l1 1.3 1.5-.5-.9 1.4.9 1.3-1.5-.5-1 1.3V20zM13.3 26.1l.8-1.4-1.2-1.2 1.6.3.8-1.5.2 1.6 1.6.3-1.4.7.2 1.6-1.1-1.1zM20 28.9l-.5-1.6h-1.6l1.3-.9-.5-1.6 1.3 1 1.3-1-.5 1.6 1.3.9h-1.6zM26.7 26.1l-1.5-.7-1.1 1.1.2-1.6-1.4-.7 1.6-.3.2-1.6.8 1.5 1.6-.3-1.2 1.2zM29.4 19.5l-1.5.5v1.6l-1-1.3-1.5.5.9-1.3-.9-1.4 1.5.5 1-1.3V19zM26.7 12.8l-.8 1.4 1.2 1.2-1.6-.3-.8 1.5-.2-1.6-1.6-.3 1.4-.7-.2-1.6 1.1 1.1z"/><path d="M20 2.3c-7.1 0-13.7 4.6-16.1 11.3-2.5 6.8-.3 14.5 5.2 19.1 5.5 4.6 13.6 5.2 19.8 1.5 6.2-3.7 9.4-11.1 8-18.2-1.5-6.9-7.3-12.4-14.2-13.5-.9-.1-1.8-.2-2.7-.2m13.8 23.4c-2.9 6.5-10.2 10.2-17.2 8.6-5.3-1.3-9.7-5.4-11.2-10.7-1.5-5.4.1-11.3 4.2-15.2C14 4.3 20.7 3.1 26.2 5.6c6.6 3 10.3 10.5 8.5 17.5-.2.9-.5 1.8-.9 2.6-.2.4.2-.3 0 0" fill="#c7c7c7"/></svg>