<svg id="Layer_1" data-name="Layer 1" xmlns="http://www.w3.org/2000/svg" viewBox="0 0 150.66 143.3"><defs><style>.cls-1{fill:#8d8d8d;stroke:#8d8d8d;stroke-miterlimit:10;}.cls-2{fill:#ffb231;}.cls-3{fill:#444;}</style></defs><title>Computer</title><path class="cls-1" d="M13.1,16.56h0a1.16,1.16,0,0,0-1.16,1.17A1.19,1.19,0,0,0,13.1,18.9a1.17,1.17,0,0,0,0-2.34Z" transform="translate(0.33)"/><path class="cls-1" d="M17.78,16.56h0a1.15,1.15,0,0,0-1.15,1.17,1.18,1.18,0,1,0,1.18-1.17Z" transform="translate(0.33)"/><path class="cls-1" d="M22.46,16.56h0a1.16,1.16,0,0,0-1.16,1.17,1.19,1.19,0,0,0,1.19,1.17,1.17,1.17,0,0,0,0-2.34Z" transform="translate(0.33)"/><path class="cls-1" d="M125.35,47h0a1.15,1.15,0,0,0-1.15,1.17A1.18,1.18,0,1,0,125.35,47Z" transform="translate(0.33)"/><path class="cls-1" d="M148.66,98.37H1.34a1.17,1.17,0,1,0,0,2.33H148.66a1.17,1.17,0,1,0,0-2.33Z" transform="translate(0.33)"/><path class="cls-1" d="M75,103a4.68,4.68,0,1,0,4.68,4.68A4.69,4.69,0,0,0,75,103Zm0,7a2.34,2.34,0,1,1,2.34-2.33A2.33,2.33,0,0,1,75,110.05Z" transform="translate(0.33)"/><path class="cls-1" d="M60.07,119.44a1.17,1.17,0,0,0-1.4.89l-4.68,21a1.18,1.18,0,0,0,.89,1.4,1.15,1.15,0,0,0,.26,0,1.17,1.17,0,0,0,1.14-.92l4.68-21A1.17,1.17,0,0,0,60.07,119.44Z" transform="translate(0.33)"/><path class="cls-1" d="M96,141.37l-4.67-21a1.17,1.17,0,0,0-2.29.5l4.68,21a1.17,1.17,0,0,0,1.14.92l.26,0A1.17,1.17,0,0,0,96,141.37Z" transform="translate(0.33)"/><path class="cls-1" d="M98.38,140.46H51.62a1.17,1.17,0,0,0,0,2.34H98.38a1.17,1.17,0,1,0,0-2.34Z" transform="translate(0.33)"/><path class="cls-1" d="M141.65,14.22H8.35a1.17,1.17,0,0,0-1.17,1.17V92.56a1.18,1.18,0,0,0,1.17,1.17h133.3a1.18,1.18,0,0,0,1.17-1.17V15.39A1.17,1.17,0,0,0,141.65,14.22Zm-1.17,77.17H9.52V16.56h131Z" transform="translate(0.33)"/><path class="cls-1" d="M141.65,7.2H8.35A8.19,8.19,0,0,0,.17,15.39v93.54a8.19,8.19,0,0,0,8.18,8.18h133.3a8.19,8.19,0,0,0,8.18-8.18V15.39A8.2,8.2,0,0,0,141.65,7.2Zm5.84,101.73a5.85,5.85,0,0,1-5.84,5.84H8.35a5.85,5.85,0,0,1-5.84-5.84V15.39A5.85,5.85,0,0,1,8.35,9.54h133.3a5.85,5.85,0,0,1,5.84,5.85v93.54Z" transform="translate(0.33)"/><path class="cls-1" d="M148.66,107.76a1.17,1.17,0,0,0-1.17,1.17v4.64a5.77,5.77,0,0,1-5.84,5.84H8.35a5.77,5.77,0,0,1-5.84-5.84v-4.68a1.17,1.17,0,0,0-2.34,0v4.68a8.09,8.09,0,0,0,8.18,8.18h133.3a8.09,8.09,0,0,0,8.18-8.18v-4.64A1.17,1.17,0,0,0,148.66,107.76Z" transform="translate(0.33)"/><path class="cls-1" d="M141.65,18.9H8.35a1.17,1.17,0,1,0,0,2.33h133.3a1.17,1.17,0,1,0,0-2.33Z" transform="translate(0.33)"/><path class="cls-1" d="M15.37,23.57a1.17,1.17,0,0,0-1.17,1.17V87.88a1.17,1.17,0,1,0,2.34,0V24.74A1.17,1.17,0,0,0,15.37,23.57Z" transform="translate(0.33)"/><path class="cls-1" d="M120.6,18.9a1.16,1.16,0,0,0-1.17,1.16v72.5a1.17,1.17,0,0,0,2.34,0V20.06A1.16,1.16,0,0,0,120.6,18.9Z" transform="translate(0.33)"/><path class="cls-1" d="M141.65,37.6H120.6a1.17,1.17,0,1,0,0,2.34h21.05a1.17,1.17,0,0,0,0-2.34Z" transform="translate(0.33)"/><path class="cls-1" d="M15.37,30.59h-7a1.17,1.17,0,0,0,0,2.34h7a1.17,1.17,0,0,0,0-2.34Z" transform="translate(0.33)"/><path class="cls-1" d="M15.37,37.6h-7a1.17,1.17,0,1,0,0,2.34h7a1.17,1.17,0,0,0,0-2.34Z" transform="translate(0.33)"/><path class="cls-1" d="M15.37,44.62h-7a1.17,1.17,0,1,0,0,2.34h7a1.17,1.17,0,0,0,0-2.34Z" transform="translate(0.33)"/><path class="cls-1" d="M15.37,51.63h-7a1.17,1.17,0,1,0,0,2.34h7a1.17,1.17,0,1,0,0-2.34Z" transform="translate(0.33)"/><path class="cls-1" d="M15.37,58.65h-7a1.17,1.17,0,1,0,0,2.34h7a1.17,1.17,0,0,0,0-2.34Z" transform="translate(0.33)"/><path class="cls-1" d="M15.37,65.66h-7a1.17,1.17,0,1,0,0,2.34h7a1.17,1.17,0,0,0,0-2.34Z" transform="translate(0.33)"/><path class="cls-1" d="M15.37,72.68h-7a1.17,1.17,0,1,0,0,2.34h7a1.17,1.17,0,0,0,0-2.34Z" transform="translate(0.33)"/><path class="cls-1" d="M15.37,79.7h-7a1.17,1.17,0,1,0,0,2.33h7a1.17,1.17,0,1,0,0-2.33Z" transform="translate(0.33)"/><path class="cls-1" d="M15.37,86.71h-7a1.17,1.17,0,1,0,0,2.34h7a1.17,1.17,0,0,0,0-2.34Z" transform="translate(0.33)"/><path class="cls-1" d="M15.37,23.57h-7a1.17,1.17,0,0,0,0,2.34h7a1.17,1.17,0,1,0,0-2.34Z" transform="translate(0.33)"/><path class="cls-1" d="M137,25.91H125.28a1.17,1.17,0,0,0,0,2.34H137a1.17,1.17,0,0,0,0-2.34Z" transform="translate(0.33)"/><path class="cls-1" d="M137,30.59H125.28a1.17,1.17,0,0,0,0,2.34H137a1.17,1.17,0,0,0,0-2.34Z" transform="translate(0.33)"/><path class="cls-1" d="M137,47h-7a1.17,1.17,0,1,0,0,2.34h7A1.17,1.17,0,0,0,137,47Z" transform="translate(0.33)"/><path class="cls-1" d="M125.35,54h0a1.15,1.15,0,0,0-1.15,1.17A1.18,1.18,0,1,0,125.35,54Z" transform="translate(0.33)"/><path class="cls-1" d="M137,54h-7a1.17,1.17,0,1,0,0,2.34h7A1.17,1.17,0,0,0,137,54Z" transform="translate(0.33)"/><path class="cls-1" d="M125.35,61h0a1.15,1.15,0,0,0-1.15,1.17A1.18,1.18,0,1,0,125.35,61Z" transform="translate(0.33)"/><path class="cls-1" d="M137,61h-7a1.17,1.17,0,1,0,0,2.34h7A1.17,1.17,0,0,0,137,61Z" transform="translate(0.33)"/><path class="cls-1" d="M125.35,68h0a1.16,1.16,0,0,0-1.15,1.17A1.18,1.18,0,1,0,125.35,68Z" transform="translate(0.33)"/><path class="cls-1" d="M137,68h-7a1.17,1.17,0,1,0,0,2.34h7A1.17,1.17,0,0,0,137,68Z" transform="translate(0.33)"/><path class="cls-1" d="M125.35,75h0a1.15,1.15,0,0,0-1.15,1.17A1.18,1.18,0,1,0,125.35,75Z" transform="translate(0.33)"/><path class="cls-1" d="M137,75h-7a1.17,1.17,0,1,0,0,2.34h7A1.17,1.17,0,0,0,137,75Z" transform="translate(0.33)"/><path class="cls-1" d="M125.35,82h0a1.16,1.16,0,0,0-1.15,1.17A1.18,1.18,0,1,0,125.35,82Z" transform="translate(0.33)"/><path class="cls-1" d="M137,82h-7a1.17,1.17,0,1,0,0,2.34h7A1.17,1.17,0,0,0,137,82Z" transform="translate(0.33)"/><path class="cls-1" d="M75.54,82.41c-.8-.3-1.89-.59-3.1-.92-3.64-1-9.13-2.48-9.13-5.3a1.17,1.17,0,1,0-2.34,0c0,4.62,6.27,6.31,10.85,7.55,1.14.31,2.16.58,2.91.87,3.88,1.45,5,2.65,5,5.56v1.22H25.89V90.17c0-2.91,1.07-4.11,4.95-5.56.75-.29,1.77-.56,2.9-.87,4.58-1.24,10.86-2.93,10.86-7.55a1.17,1.17,0,0,0-2.34,0c0,2.83-5.49,4.31-9.13,5.3-1.21.33-2.3.62-3.1.92-4.1,1.54-6.48,3.3-6.48,7.76v2.39a1.18,1.18,0,0,0,1.17,1.17H80.85A1.18,1.18,0,0,0,82,92.56V90.17C82,85.71,79.64,84,75.54,82.41Z" transform="translate(0.33)"/><path class="cls-1" d="M43.43,69.49a1.17,1.17,0,0,0-1.17,1.17v5.53a1.17,1.17,0,0,0,2.34,0V70.66A1.17,1.17,0,0,0,43.43,69.49Z" transform="translate(0.33)"/><path class="cls-1" d="M62.14,69.36A1.17,1.17,0,0,0,61,70.53v5.66a1.17,1.17,0,1,0,2.34,0V70.53A1.17,1.17,0,0,0,62.14,69.36Z" transform="translate(0.33)"/><path class="cls-1" d="M31.74,49.3a1.16,1.16,0,0,0-1.17,1.16V83.09a1.17,1.17,0,1,0,2.34,0V50.46A1.17,1.17,0,0,0,31.74,49.3Z" transform="translate(0.33)"/><path class="cls-1" d="M73.84,49.3a1.16,1.16,0,0,0-1.17,1.16V83.09a1.17,1.17,0,1,0,2.34,0V50.46A1.16,1.16,0,0,0,73.84,49.3Z" transform="translate(0.33)"/><path class="cls-1" d="M52.78,28.25c-18.22,0-22.21,16-22.21,22.21a1.17,1.17,0,0,0,2.34,0c0-5.52,3.57-19.87,19.87-19.87,18.45,0,19.89,15.21,19.89,19.87a1.17,1.17,0,1,0,2.33,0C75,39.72,69.17,28.25,52.78,28.25Z" transform="translate(0.33)"/><path class="cls-1" d="M69.15,53.68A1.17,1.17,0,0,0,68,54.85C68,65.86,57,75,52.78,75c-3.69,0-13.73-7.66-15.05-17.69a1.19,1.19,0,0,0-1.32-1,1.17,1.17,0,0,0-1,1.31c1.48,11.2,12.45,19.73,17.37,19.73,5.63,0,17.54-10.65,17.54-22.51A1.17,1.17,0,0,0,69.15,53.68Z" transform="translate(0.33)"/><path class="cls-1" d="M70.22,35.55a1.18,1.18,0,0,0-1.65.11C56.42,49.57,31.79,54,31.54,54a1.17,1.17,0,0,0,.2,2.32l.2,0c1-.18,25.69-4.55,38.39-19.09A1.18,1.18,0,0,0,70.22,35.55Z" transform="translate(0.33)"/><path class="cls-1" d="M74,51.65c-8.17-1.3-13.23-7.81-13.28-7.87a1.17,1.17,0,0,0-1.86,1.41A24.94,24.94,0,0,0,73.64,54h.19A1.17,1.17,0,0,0,74,51.65Z" transform="translate(0.33)"/><path class="cls-1" d="M36.42,80.6a1.17,1.17,0,0,0-1.17,1.17V92.56a1.17,1.17,0,1,0,2.33,0V81.77A1.16,1.16,0,0,0,36.42,80.6Z" transform="translate(0.33)"/><path class="cls-1" d="M69.15,80.6A1.17,1.17,0,0,0,68,81.77V92.56a1.17,1.17,0,1,0,2.34,0V81.77A1.17,1.17,0,0,0,69.15,80.6Z" transform="translate(0.33)"/><path class="cls-1" d="M111.25,35.26H85.52a1.18,1.18,0,0,0-1.17,1.17V73.85A1.17,1.17,0,0,0,85.52,75h25.73a1.17,1.17,0,0,0,1.17-1.17V36.43A1.18,1.18,0,0,0,111.25,35.26Zm-1.17,37.42H86.69V37.6h23.39Z" transform="translate(0.33)"/><path class="cls-1" d="M94.88,42.28a3.51,3.51,0,1,0,3.5,3.51A3.51,3.51,0,0,0,94.88,42.28Zm0,4.68a1.17,1.17,0,1,1,1.17-1.17A1.17,1.17,0,0,1,94.88,47Z" transform="translate(0.33)"/><path class="cls-1" d="M106.57,44.62H97.22a1.17,1.17,0,0,0,0,2.34h9.35a1.17,1.17,0,1,0,0-2.34Z" transform="translate(0.33)"/><path class="cls-1" d="M92.54,44.62H90.2a1.17,1.17,0,0,0,0,2.34h2.34a1.17,1.17,0,0,0,0-2.34Z" transform="translate(0.33)"/><path class="cls-1" d="M94.88,61a3.51,3.51,0,1,0,3.5,3.51A3.51,3.51,0,0,0,94.88,61Zm0,4.67a1.17,1.17,0,1,1,1.17-1.16A1.16,1.16,0,0,1,94.88,65.66Z" transform="translate(0.33)"/><path class="cls-1" d="M106.57,63.33H97.22a1.17,1.17,0,1,0,0,2.33h9.35a1.17,1.17,0,1,0,0-2.33Z" transform="translate(0.33)"/><path class="cls-1" d="M92.54,63.33H90.2a1.17,1.17,0,1,0,0,2.33h2.34a1.17,1.17,0,1,0,0-2.33Z" transform="translate(0.33)"/><path class="cls-1" d="M101.89,51.63a3.51,3.51,0,1,0,3.51,3.51A3.52,3.52,0,0,0,101.89,51.63Zm0,4.68a1.17,1.17,0,1,1,1.17-1.17A1.17,1.17,0,0,1,101.89,56.31Z" transform="translate(0.33)"/><path class="cls-1" d="M99.55,54H90.2a1.17,1.17,0,0,0,0,2.34h9.35a1.17,1.17,0,0,0,0-2.34Z" transform="translate(0.33)"/><path class="cls-1" d="M106.57,54h-2.34a1.17,1.17,0,0,0,0,2.34h2.34a1.17,1.17,0,1,0,0-2.34Z" transform="translate(0.33)"/><circle class="cls-2" cx="20.33" cy="20" r="20"/><path class="cls-3" d="M26.17,14.5a4.71,4.71,0,0,1-1.12,3.26,5.57,5.57,0,0,1-3.17,1.69v.12a6,6,0,0,1,3.72,1.59,4.67,4.67,0,0,1,1.21,3.36,5.45,5.45,0,0,1-2.06,4.57,9.38,9.38,0,0,1-5.87,1.6,16.54,16.54,0,0,1-3-.25,9.94,9.94,0,0,1-2.67-.87V27.32a12.62,12.62,0,0,0,2.88,1,13.24,13.24,0,0,0,2.9.35q5.38,0,5.39-4.23,0-3.78-5.95-3.78H16.36v-2h2.08a6.31,6.31,0,0,0,3.86-1.07,3.52,3.52,0,0,0,1.42-3,3,3,0,0,0-1-2.4,4.37,4.37,0,0,0-2.84-.86,8.7,8.7,0,0,0-2.58.37,11.25,11.25,0,0,0-2.76,1.36l-1.2-1.59a10.24,10.24,0,0,1,3-1.59,10.82,10.82,0,0,1,3.52-.57,7.22,7.22,0,0,1,4.71,1.38A4.69,4.69,0,0,1,26.17,14.5Z" transform="translate(0.33)"/></svg>