<svg id="Capa_1" data-name="Capa 1" xmlns="http://www.w3.org/2000/svg" viewBox="0 0 150 150"><defs><style>.cls-1{fill:#8d8d8d;}.cls-2{fill:#ffb231;}.cls-3{fill:#444;}</style></defs><title>gallery</title><path class="cls-1" d="M150,77.5V2.5A2.5,2.5,0,0,0,147.5,0H32.5A2.5,2.5,0,0,0,30,2.5V30H2.5A2.5,2.5,0,0,0,0,32.5v75A2.5,2.5,0,0,0,2.5,110h20a2.64,2.64,0,0,0,.56-.11l14.6,38.5a2.51,2.51,0,0,0,3.23,1.45h0l107.5-42.5a2.49,2.49,0,0,0,1.41-3.24h0L140.36,80h7.14A2.5,2.5,0,0,0,150,77.5ZM5,105V35H112.83L99.39,40H12.5A2.5,2.5,0,0,0,10,42.5v55a2.5,2.5,0,0,0,2.5,2.5h6.81l1.89,5ZM117.5,30H45V15h90V65h-.53L122.33,34.08A2.5,2.5,0,0,0,120,32.52v0A2.5,2.5,0,0,0,117.5,30ZM32.33,50.26A9.57,9.57,0,0,0,30,50a10,10,0,0,0-5.91,18L15,71.4V45H86L39.75,62.2A9.93,9.93,0,0,0,32.33,50.26ZM35,60a5,5,0,1,1-5-5A5,5,0,0,1,35,60ZM17.41,95H15V88.64Zm126.85,8.59L41.44,144.25,15.73,76.46,118.57,38.2ZM145,75h-6.6l-2-5h1.06a2.5,2.5,0,0,0,2.5-2.5v-55a2.5,2.5,0,0,0-2.5-2.5h-95A2.5,2.5,0,0,0,40,12.5V30H35V5H145Z" transform="translate(0 0)"/><path class="cls-1" d="M137.34,99.11,135,92.86a2.42,2.42,0,0,0-.84-2.2l-16.77-44a2.51,2.51,0,0,0-3.23-1.45h0l-90,35a2.5,2.5,0,0,0-1.43,3.22l20,52.5A2.5,2.5,0,0,0,45,137.5a2.58,2.58,0,0,0,.91-.17l90-35A2.5,2.5,0,0,0,137.34,99.11ZM50.52,91A2.51,2.51,0,0,0,50,92.34l-2.43,39-1.13.44L28.22,83.93l85.34-33.18,13.77,36.12L101.18,72.8a2.49,2.49,0,0,0-3.38,1A2.44,2.44,0,0,0,97.5,75v5.33L78.89,67.92a2.5,2.5,0,0,0-3.47.69,2.54,2.54,0,0,0-.4,1.06l-4.47,33.56L54,90.52A2.5,2.5,0,0,0,50.52,91Zm2.18,38.34,2-32,26.94,20.73ZM87,116a2.41,2.41,0,0,0-.42-.48l-11.41-8.77L79.45,74.3,98.61,87.08a2.5,2.5,0,0,0,3.47-.69A2.55,2.55,0,0,0,102.5,85V79.18L130.05,94l1.73,4.55Z" transform="translate(0 0)"/><circle class="cls-2" cx="20" cy="20" r="20"/><path class="cls-3" d="M27.73,25.68H24.65v4.78H22.38V25.68H12.27V23.61L22.14,9.54h2.51v14h3.08Zm-5.35-2.15V16.61c0-1.35.05-2.89.15-4.59h-.12a20.45,20.45,0,0,1-1.28,2.26l-6.5,9.25Z" transform="translate(0 0)"/></svg>