<svg id="Layer_1" data-name="Layer 1" xmlns="http://www.w3.org/2000/svg" viewBox="0 0 150 143.75"><defs><style>.cls-1{fill:#fd9f25;}.cls-2{fill:#8d8d8d;}.cls-3{fill:#ffb231;}.cls-4{fill:#444;}</style></defs><title>upload</title><path class="cls-1" d="M84.38,143.75H65.63a6.25,6.25,0,0,1-6.25-6.25V106.25H43.75a3.13,3.13,0,0,1-2.21-5.34L72.79,69.66a3.13,3.13,0,0,1,4.42,0l31.25,31.25a3.13,3.13,0,0,1-2.21,5.34H90.63V137.5A6.26,6.26,0,0,1,84.38,143.75ZM51.29,100H62.5a3.13,3.13,0,0,1,3.13,3.13V137.5H84.38V103.13A3.12,3.12,0,0,1,87.5,100H98.71L75,76.29Z"/><path class="cls-2" d="M28.13,106.06a2.23,2.23,0,0,1-.36,0A31.24,31.24,0,0,1,29.1,43.82a46.83,46.83,0,0,1,87.48-12.3,37.43,37.43,0,0,1,6.13,73.24,3.12,3.12,0,0,1-1.67-6,31.17,31.17,0,0,0-6.65-61.12,3.13,3.13,0,0,1-2.66-1.8A40.58,40.58,0,0,0,34.84,47.31,3.12,3.12,0,0,1,31.75,50a25,25,0,0,0-3.28,49.83,3.12,3.12,0,0,1-.34,6.23Z"/><circle class="cls-3" cx="20" cy="20" r="20"/><path class="cls-4" d="M23.12,31.59H20.81V16.75c0-1.24,0-2.41.11-3.51-.2.2-.42.41-.67.63S18.88,15,16.86,16.65L15.61,15l5.51-4.26h2Z"/></svg>