<svg id="Layer_1" data-name="Layer 1" xmlns="http://www.w3.org/2000/svg" viewBox="0 0 149.38 148.25"><defs><style>.cls-1{fill:#8d8d8d;stroke:#8d8d8d;stroke-miterlimit:10;stroke-width:0.25px;}.cls-2{fill:#ffb231;}.cls-3{fill:#444;}</style></defs><title>settings</title><path class="cls-1" d="M115.12,92.06a2.44,2.44,0,0,0-2.44-2.44H98.06a2.44,2.44,0,0,0,0,4.88h14.62A2.44,2.44,0,0,0,115.12,92.06Z"/><path class="cls-1" d="M105.37,28.69V16.5a2.44,2.44,0,0,0-4.88,0V28.69a12.21,12.21,0,0,0,12.19,12.19h21.94V87.19a2.44,2.44,0,0,0,4.87,0V38.44A2.44,2.44,0,0,0,137.05,36H112.68A7.32,7.32,0,0,1,105.37,28.69Z"/><path class="cls-1" d="M112.68,60.38H93.18a2.44,2.44,0,1,0,0,4.87h19.5a2.44,2.44,0,1,0,0-4.87Z"/><path class="cls-1" d="M85.87,62.81a2.43,2.43,0,0,0-2.44-2.43H68.81a2.44,2.44,0,1,0,0,4.87H83.43A2.44,2.44,0,0,0,85.87,62.81Z"/><path class="cls-1" d="M68.81,75a2.44,2.44,0,1,0,0,4.87h4.87a2.44,2.44,0,1,0,0-4.87Z"/><path class="cls-1" d="M68.81,50.63H93.18a2.44,2.44,0,0,0,0-4.88H68.81a2.44,2.44,0,1,0,0,4.88Z"/><path class="cls-1" d="M83.43,79.87h24.38a2.44,2.44,0,0,0,0-4.87H83.43a2.44,2.44,0,0,0,0,4.87Z"/><path class="cls-1" d="M98.06,104.25a2.44,2.44,0,1,0,0,4.87h4.87a2.44,2.44,0,1,0,0-4.87Z"/><path class="cls-1" d="M88.31,89.62H68.81a2.44,2.44,0,0,0,0,4.88h19.5a2.44,2.44,0,0,0,0-4.88Z"/><path class="cls-1" d="M88.31,104.25H68.81a2.44,2.44,0,1,0,0,4.87h19.5a2.44,2.44,0,0,0,0-4.87Z"/><path class="cls-1" d="M146.34,102.28l-4.88-4.88a9.16,9.16,0,0,0-13.19,0L96.33,129.34a2.44,2.44,0,0,0-.71,1.72v14.62a2.44,2.44,0,0,0,2.44,2.44h14.62a2.44,2.44,0,0,0,1.72-.71l31.94-31.94A8.93,8.93,0,0,0,146.34,102.28Zm-21.22,5.17,3.86,3.86-21.17,21.18-3.87-3.87Zm-24.63,35.8V132.07l11.18,11.18Zm14.63-3.45-3.87-3.87,21.18-21.17,3.86,3.86ZM142.89,112l-3.15,3.15L128.56,104l3.15-3.15a4.16,4.16,0,0,1,6.31,0l4.87,4.87A4.11,4.11,0,0,1,142.89,112Z"/><path class="cls-1" d="M88.31,143.25H24.94a7.32,7.32,0,0,1-7.32-7.32V14.07a7.32,7.32,0,0,1,7.32-7.32h77l23.66,23.66A2.44,2.44,0,1,0,129,27L104.65,2.59a2.4,2.4,0,0,0-1.72-.71h-78A12.21,12.21,0,0,0,12.75,14.07V135.93a12.21,12.21,0,0,0,12.19,12.19H88.31a2.44,2.44,0,1,0,0-4.87Z"/><path class="cls-1" d="M88.31,118.87H68.81a2.44,2.44,0,0,0,0,4.88h19.5a2.44,2.44,0,0,0,0-4.88Z"/><path class="cls-1" d="M56.62,48.19a2.44,2.44,0,0,0-2.44-2.44H39.56a2.44,2.44,0,0,0-2.44,2.44V62.81a2.44,2.44,0,0,0,2.44,2.44H54.18a2.44,2.44,0,0,0,2.44-2.44ZM51.75,60.38H42V50.63h9.75Z"/><path class="cls-1" d="M39.56,123.75H54.18a2.44,2.44,0,0,0,2.44-2.44V106.69a2.44,2.44,0,0,0-2.44-2.44H39.56a2.44,2.44,0,0,0-2.44,2.44v14.62A2.44,2.44,0,0,0,39.56,123.75ZM42,109.12h9.75v9.75H42Z"/><path class="cls-1" d="M42.71,93.78a2.44,2.44,0,0,0,1.72.72h.25a2.42,2.42,0,0,0,1.78-1.08l9.75-14.62a2.44,2.44,0,1,0-4.05-2.71l-8.1,12.15-2.78-2.77a2.44,2.44,0,0,0-3.44,3.45Z"/><circle class="cls-2" cx="20" cy="20" r="20"/><path class="cls-3" d="M26.84,30.55H13.16v-2L18.64,23a40.48,40.48,0,0,0,3.3-3.61,9.77,9.77,0,0,0,1.2-2.11,6.15,6.15,0,0,0,.4-2.21,3.51,3.51,0,0,0-1-2.64,3.89,3.89,0,0,0-2.81-1,6.9,6.9,0,0,0-2.45.43,9.58,9.58,0,0,0-2.59,1.55l-1.25-1.61a9.63,9.63,0,0,1,6.26-2.39,6.62,6.62,0,0,1,4.6,1.5A5.17,5.17,0,0,1,26,15a7.81,7.81,0,0,1-1.11,3.92,24.82,24.82,0,0,1-4.16,4.89l-4.55,4.46v.11h10.7Z"/></svg>